<svg version="1.1" xmlns="http://www.w3.org/2000/svg" xmlns:xlink="http://www.w3.org/1999/xlink" width="755" height="61.65" viewBox="0,0,755,61.65"><g transform="translate(-36,-147.2)"><g data-paper-data="{&quot;isPaintingLayer&quot;:true}" fill-rule="nonzero" stroke="none" stroke-width="0" stroke-linecap="butt" stroke-linejoin="miter" stroke-miterlimit="10" stroke-dasharray="" stroke-dashoffset="0" style="mix-blend-mode: normal"><path d="M36,164.2v-17h755v17z" fill="#dadada"/><path d="M53.75,155.85c0,2.76142 -2.23858,5 -5,5c-2.76142,0 -5,-2.23858 -5,-5c0,-2.76142 2.23858,-5 5,-5c2.76142,0 5,2.23858 5,5z" fill="#ff0000"/><path d="M68.75,155.85c0,2.76142 -2.23858,5 -5,5c-2.76142,0 -5,-2.23858 -5,-5c0,-2.76142 2.23858,-5 5,-5c2.76142,0 5,2.23858 5,5z" fill="#00ff08"/><path d="M82.75,155.6c0,2.62335 -2.12665,4.75 -4.75,4.75c-2.62335,0 -4.75,-2.12665 -4.75,-4.75c0,-2.62335 2.12665,-4.75 4.75,-4.75c2.62335,0 4.75,2.12665 4.75,4.75z" fill="#fff700"/><ellipse cx="195.5" cy="417.7" transform="scale(0.5,0.5)" rx="0" ry="0" fill="#fff700"/></g></g></svg>