<svg version="1.1" xmlns="http://www.w3.org/2000/svg" xmlns:xlink="http://www.w3.org/1999/xlink" width="16.85692" height="10.54878" viewBox="0,0,16.85692,10.54878"><g transform="translate(-231.10698,-173.59259)"><g data-paper-data="{&quot;isPaintingLayer&quot;:true}" fill="#000000" fill-rule="nonzero" stroke="none" stroke-width="0" stroke-linecap="butt" stroke-linejoin="miter" stroke-miterlimit="10" stroke-dasharray="" stroke-dashoffset="0" style="mix-blend-mode: normal"><path d="M239.18273,184.14136c0,0 0.60512,-0.02136 -0.15979,-0.0164c-0.52193,0.00339 -4.9971,-4.47558 -5.2334,-4.68141c-1.74779,-1.52244 -2.68257,-3.50771 -2.68257,-3.50771c0,0 2.55919,-0.69795 4.31666,-0.9054c0.06112,-0.00721 0.12812,-0.00256 0.19141,-0.02452c1.71615,-0.59554 4.23197,-1.20571 4.23197,-1.20571c0,0 1.42676,-0.3968 1.7217,-0.09329c0.32044,0.32977 -0.03562,0.94718 -0.03562,0.94718z"/><path d="M246.25459,182.66049l-3.96944,-3.6772c0,0 0.34617,-0.16003 -0.21776,-0.10789c-1.22372,0.11313 -3.88497,0.44875 -3.59186,0.11225c0.11368,-0.1305 0.59812,-1.96776 1.24938,-1.92561c0.53654,0.03472 2.95768,-0.29493 3.55703,-0.09577c0.52068,0.17302 1.40919,1.1706 1.40919,1.1706l1.18396,1.51435c0,0 2.39893,3.88374 2.05506,4.27851c-0.15948,0.18309 -0.36907,-0.24784 -0.65822,-0.49513c-0.46459,-0.39733 -1.01736,-0.77412 -1.01736,-0.77412z"/></g></g></svg>