<svg version="1.1" xmlns="http://www.w3.org/2000/svg" xmlns:xlink="http://www.w3.org/1999/xlink" width="395" height="54.00001" viewBox="0,0,395,54.00001"><g transform="translate(-42.5,-153)"><g data-paper-data="{&quot;isPaintingLayer&quot;:true}" fill-rule="nonzero" stroke-linejoin="miter" stroke-miterlimit="10" stroke-dasharray="" stroke-dashoffset="0" style="mix-blend-mode: normal"><path d="M55.5,207.00001v-54h188v54z" fill="#dcdcdc" stroke="none" stroke-width="0" stroke-linecap="butt"/><path d="M64.83333,163.16667c0,5.61489 -4.85025,10.16667 -10.83334,10.16667c-5.98309,0 -10.83333,-4.55178 -10.83333,-10.16667c0,-5.61489 4.85024,-10.16666 10.83333,-10.16666c5.98309,0 10.83334,4.55177 10.83334,10.16666z" fill="#dcdcdc" stroke="none" stroke-width="0" stroke-linecap="butt"/><path d="M42.5,198.66668v-36.66667h40.66666v36.66667z" fill="#dcdcdc" stroke="none" stroke-width="0" stroke-linecap="butt"/><path d="M64.5,196.83334c0,5.61489 -4.85025,10.16667 -10.83334,10.16667c-5.98309,0 -10.83333,-4.55178 -10.83333,-10.16667c0,-5.61489 4.85024,-10.16666 10.83333,-10.16666c5.98309,0 10.83334,4.55177 10.83334,10.16666z" fill="#dcdcdc" stroke="none" stroke-width="0" stroke-linecap="butt"/><path d="M236.5,207.00001v-54h188v54z" data-paper-data="{&quot;index&quot;:null}" fill="#dcdcdc" stroke="none" stroke-width="0" stroke-linecap="butt"/><path d="M426,153c5.98309,0 10.83333,4.55177 10.83333,10.16667c0,5.61489 -4.85024,10.16667 -10.83333,10.16667c-5.98308,0 -10.83334,-4.55178 -10.83334,-10.16667c0,-5.61489 4.85025,-10.16667 10.83334,-10.16667z" data-paper-data="{&quot;index&quot;:null}" fill="#dcdcdc" stroke="none" stroke-width="0" stroke-linecap="butt"/><path d="M396.83334,198.66668v-36.66667h40.66666v36.66667z" data-paper-data="{&quot;index&quot;:null}" fill="#dcdcdc" stroke="none" stroke-width="0" stroke-linecap="butt"/><path d="M426.33334,186.66667c5.98309,0 10.83333,4.55177 10.83333,10.16667c0,5.61489 -4.85024,10.16667 -10.83333,10.16667c-5.98309,0 -10.83333,-4.55178 -10.83333,-10.16667c0,-5.61489 4.85025,-10.16667 10.83333,-10.16667z" data-paper-data="{&quot;index&quot;:null}" fill="#dcdcdc" stroke="none" stroke-width="0" stroke-linecap="butt"/><path d="M95.24288,163.3946l0.51423,34.01082" fill="none" stroke="#000000" stroke-width="0.5" stroke-linecap="round"/></g></g></svg>