<svg version="1.1" xmlns="http://www.w3.org/2000/svg" xmlns:xlink="http://www.w3.org/1999/xlink" width="189" height="160.97422" viewBox="0,0,189,160.97422"><g transform="translate(-135,-112.22577)"><g data-paper-data="{&quot;isPaintingLayer&quot;:true}" fill-rule="nonzero" stroke="none" stroke-linecap="butt" stroke-linejoin="miter" stroke-miterlimit="10" stroke-dasharray="" stroke-dashoffset="0" style="mix-blend-mode: normal"><path d="M135,273.2v-160h189v160z" fill="#ffffff" stroke-width="0"/><path d="M136.15109,216.72744l31.57011,-84.68061l82.08227,55.0424l-31.57011,84.68061z" fill="#0084ff" stroke-width="0"/><path d="M145.61363,187.05417v-57.5h106.5v57.5z" fill="#ffffff" stroke-width="0"/><path d="M141.63109,201.59088l15.85278,-88.16253l78.83958,-1.20257l-15.85278,88.16254z" data-paper-data="{&quot;index&quot;:null}" fill="#0084ff" stroke-width="0"/><path d="M135.11363,273.1v-160h67v160z" fill="#0084ff" stroke-width="0"/><path d="M183.11364,272.6v-18.5h34.6875v18.5z" fill="#0084ff" stroke-width="0"/><path d="M180.61364,155.1c0,3.86599 -3.13401,7 -7,7c-3.86599,0 -7,-3.13401 -7,-7c0,-3.86599 3.13401,-7 7,-7c3.86599,0 7,3.13401 7,7z" fill="#000000" stroke-width="0"/><path d="M288.11364,154.6c0,3.86599 -3.13401,7 -7,7c-3.86599,0 -7,-3.13401 -7,-7c0,-3.86599 3.13401,-7 7,-7c3.86599,0 7,3.13401 7,7z" fill="#000000" stroke-width="0"/><path d="M274.95604,222.36393c2.67707,1.11803 1.33854,3.3541 1.33854,3.3541l-0.9385,1.4437c-3.92121,3.97811 -3.26748,9.07455 -6.31268,13.66307c-6.48821,9.77646 -15.95999,15.73833 -29.54679,15.77519c-4.52143,-0.00031 -9.24247,0.09688 -13.70743,-0.54071c-11.96751,-1.70896 -19.9384,-8.63785 -26.44848,-16.51536c-1.15184,-1.39378 -3.19055,-2.18217 -4.27908,-3.611c-0.61109,-0.80213 -0.2707,-1.92647 -0.77943,-2.77698c-0.51269,-0.85714 -1.58382,-1.40178 -2.20264,-2.20856c-2.01788,-2.63082 -3.58594,-5.31753 -5.85941,-7.84738c0,0 -1.79584,-2 0.59861,-3.5c2.39445,-1.5 4.19028,0.5 4.19028,0.5c2.35455,2.62428 4.04108,5.41613 6.11283,8.15262c0.75286,0.99441 1.95592,1.73925 2.58626,2.79144c0.40185,0.67079 -0.04916,1.58232 0.41779,2.22302c0.99999,1.37205 2.98957,2.07842 4.10149,3.389c2.39458,2.82242 4.88894,6.88364 8.3526,8.95716c2.9777,1.78261 7.21772,3.54012 10.64191,4.65683c5.09147,1.66044 10.90292,1.33031 16.2747,1.32994c11.44323,0.03574 18.88109,-5.05716 24.3283,-13.22481c3.27557,-4.91145 2.56348,-9.755 6.85679,-14.33693l0.25872,-0.5563c0,0 1.33854,-2.23607 4.01561,-1.11803z" fill="#000000" stroke-width="0.5"/></g></g></svg>